<svg width="609" height="345" viewBox="0 0 609 345" fill="none" xmlns="http://www.w3.org/2000/svg">
<path d="M607.07 190.72C607.19 190.63 607.32 190.53 607.42 190.41C609.02 188.48 609.12 185.83 608.43 183.89C608.48 183.56 609.13 183.1 607.2 182.5C606.55 182.3 605.94 181.79 605.91 181.12C605.89 180.72 605.19 180.32 604.46 179.92C603.84 179.58 603.59 178.88 603.72 178.19C604.08 176.29 601.89 174.44 603.03 172.54C605.36 169.6 597.02 166.83 600.21 163.79C600.68 163.34 600.82 162.66 600.61 162.05C599.73 159.38 600.53 156.71 601.01 154.03C601.05 153.82 601.05 153.6 601.01 153.39C600.44 151.11 597.48 148.74 598.97 146.44C599.53 145.59 599.14 144.43 598.19 144.04C593.73 142.21 608.76 140.6 605 138.79C612.51 135.28 593.62 131.14 601.18 127.62C602.08 127.2 602.37 126.14 601.86 125.29C600.88 123.69 601.82 122.1 602.73 120.52C603.01 120.03 602.93 119.46 602.65 118.98C601.62 117.19 607.18 115.4 606.51 113.59C606.22 112.79 606.41 111.91 607.13 111.46C609.38 110.06 607.6 108.63 605.69 107.24C605.31 106.97 605.07 106.55 605.02 106.09C604.79 104 599.91 100.42 597.56 99.5701C597.28 99.4701 596.98 99.4501 596.68 99.5001C592.31 100.33 587.42 102.18 585.75 103.15C585.26 103.44 584.65 103.48 584.15 103.21C577.68 99.7801 585.72 96.0401 584.81 92.6501C584.71 92.2701 584.42 91.9501 584.08 91.7501C580.86 89.7701 579.04 87.7901 579.25 85.7901C579.3 85.3501 579.55 84.9401 579.92 84.6901C582.34 83.0501 581.86 81.4001 579.48 79.7401C578.47 79.0401 578.59 77.5201 579.68 76.9401C582.25 75.5701 572.99 74.3401 576.2 73.0301C576.94 72.7301 577.2 71.9501 577.17 71.1601C577.11 69.5201 586.4 67.55 582.25 65.9601C581.21 64.6401 589.01 64.3801 579.38 63.2601C579.3 63.2601 579.21 63.2301 579.14 63.2201C572.75 61.5801 571.29 60.4801 575.98 59.2801C577.46 58.9001 577.67 56.9001 576.32 56.2101C574.05 55.0501 572.53 54.19 575.62 53.0201C576.93 52.5201 577.01 50.7601 575.8 50.0601C574.04 49.0301 575.69 48.1901 582.05 46.9001C589.94 44.0701 571.65 41.4201 583.07 39.5601C583.14 39.5501 583.21 39.5301 583.27 39.5201C596.71 35.7201 582.82 33.5201 590.95 32.7401C591.41 32.7001 591.84 32.4601 592.13 32.1001C593.72 30.0901 593.3 30.6001 592.63 29.4801C592.09 28.5801 592.56 27.3801 593.57 27.0801C597.01 26.0701 596.56 23.7401 596.04 21.7501C595.88 21.1501 595.4 20.7001 594.79 20.5501C590.62 19.5701 591.3 16.9101 596.31 14.9901C596.93 14.7501 597.36 14.1801 597.38 13.5301C597.45 11.6501 598.45 8.56008 597.35 8.27008C595.04 2.96008 589.92 4.15006 589.9 3.44006C588.3 3.12006 587.97 2.83008 588 2.36008C588.07 1.41008 587.3 0.590088 586.33 0.590088H-120.92C-121.85 0.590088 -122.6 1.33006 -122.6 2.25006V343.26C-122.6 344.18 -121.85 344.92 -120.92 344.92H601.18C602.68 344.92 603.42 343.14 602.37 342.09L602.22 341.95C601.63 341.37 601.59 340.45 602.08 339.79C603.27 338.21 603.38 336.01 602.1 333.59C601.71 332.85 601.99 332.01 602.63 331.47C603.35 330.86 598.95 330.53 600.89 328.26C601.12 327.99 601.25 327.63 601.27 327.28C601.45 323.53 602.06 323.83 595.75 324.74C595.64 325.18 594.5 324.87 593.41 324.34C592.5 323.9 592.18 322.76 592.75 321.93C596.02 317.12 593.12 316.29 591.32 316.55C582.54 318.28 594.45 313.06 591.34 309.82C590.8 306.46 592.03 304.78 591.49 302.61C591.35 302.05 591.49 301.46 591.87 301.03C594.36 298.25 592.77 296.74 596.3 294.57C593.2 294.23 596.45 293.82 600.03 293.35C600.98 293.22 601.64 292.34 601.46 291.42C601.41 291.16 601.34 290.91 601.27 290.67C601.14 290.21 600.81 289.84 600.37 289.63C594.36 286.78 594.4 285.58 592.35 282.95C592.19 282.75 591.98 282.58 591.75 282.47C586.65 279.9 590.18 277.26 590.65 274.73C591.55 272.68 589.95 271.51 588.5 269.63C588.14 269.16 587.96 268.31 588.23 267.79C589.02 266.2 585.5 264.61 586.16 263.02C586.52 262.15 586.25 261.17 585.39 260.77C579.75 258.13 576.13 255.05 585.42 252.57C586.14 252.38 586.83 251.84 586.88 251.11C586.95 250.16 591.26 249.41 591.64 248.2C593.08 247.08 595.74 245.67 591.62 244.51C591.54 244.49 591.46 244.46 591.38 244.43C587.18 242.54 584.34 240.66 590.76 238.77C591.22 238.64 591.6 238.33 591.81 237.9C593.17 235.1 594.89 232.28 591.66 229.49C591.58 229.42 591.5 229.34 591.44 229.26C589.52 226.84 589.26 224.86 588.16 222.59C587.91 222.08 587.9 221.46 588.22 220.99C590.03 218.36 585.28 215.56 588.95 213.06C589.5 212.68 589.8 212.01 589.65 211.37C589.09 208.95 585.77 206.33 593.33 204.39C600.05 202.5 598.74 200.79 602.34 198.55C602.51 198.45 602.71 198.37 602.9 198.33C606.04 197.66 606.58 196.95 606.27 196.24C605.91 195.43 606.26 194.41 607.06 194.04C609.47 192.93 605.44 192.04 607.06 190.77L607.07 190.72Z" fill="#2B82FB"/>
</svg>
